<?xml version="1.0" encoding="utf-8"?>
<!-- Svg Vector Icons : http://www.onlinewebfonts.com/icon -->
<!DOCTYPE svg PUBLIC "-//W3C//DTD SVG 1.1//EN" "http://www.w3.org/Graphics/SVG/1.1/DTD/svg11.dtd">
<svg version="1.1" xmlns="http://www.w3.org/2000/svg" xmlns:xlink="http://www.w3.org/1999/xlink" x="0px" y="0px" viewBox="0 0 1000 1000" enable-background="new 0 0 1000 1000" xml:space="preserve">
<metadata> Svg Vector Icons : http://www.onlinewebfonts.com/icon </metadata>
<g><g transform="translate(0.000000,511.000000) scale(0.100000,-0.100000)"><path d="M691.1,4248.9c-215.6-36.6-414-182.9-525.6-387L100,3740.6V765.9v-2974.7l52-105.9c59.7-123.2,181-252.2,302.3-323.5c169.4-100.1,171.4-100.1,1988.9-100.1h1688.5l-9.6-129c-17.3-233-48.1-431.3-86.6-556.4l-36.6-119.4l-325.4-7.7c-367.7-5.8-402.4-17.3-469.8-155.9c-63.5-125.1,13.5-281.1,155.9-321.5c98.2-27,3182.6-27,3280.8,0c142.5,40.4,219.5,196.4,156,321.5c-67.4,136.7-102.1,150.2-467.9,155.9L6005-3543l-21.2,50c-32.7,80.9-75.1,290.7-88.6,427.4c-5.8,69.3-15.4,171.4-21.2,225.3l-9.6,100.1l1738.6,5.8l1738.6,5.8l111.7,44.3c146.3,59.7,323.4,223.3,392.8,365.8l53.9,109.7V765.9v2974.7l-53.9,104c-117.5,221.4-304.2,360-541,404.3C9164.5,4275.8,847,4273.9,691.1,4248.9z M9347.4,3844.6c50.1-25,104-73.2,134.8-119.4l52-78.9L9540,1253l3.8-2393.2H5000H456.2L460,1253l5.8,2393.2l52,78.9c28.9,44.3,84.7,94.3,134.8,119.4l82.8,40.4h4262.7h4264.6L9347.4,3844.6z M9540-1819.8c-5.8-284.9-7.7-298.4-59.7-375.4c-28.9-44.3-86.6-98.2-129-119.4c-75.1-38.5-100.1-38.5-4351.3-38.5c-4251.2,0-4276.2,0-4351.3,38.5c-42.4,21.2-100.1,75.1-129,119.4c-52,77-53.9,90.5-59.7,375.4l-5.8,294.6H5000h4545.7L9540-1819.8z"/></g></g>
</svg>